<?xml version="1.0" encoding="UTF-8" standalone="no"?> <svg width="64" height="64" viewBox="0 0 64 64" fill="none" xmlns="http://www.w3.org/2000/svg">
<path d="M43.024 19.172C43.0306 19.2146 43.0403 19.2567 43.053 19.298C43.0697 19.3489 43.0904 19.3984 43.115 19.446C43.1347 19.4867 43.1571 19.5261 43.182 19.564C43.193 19.58 43.198 19.599 43.21 19.614L50.21 28.614C50.3034 28.7344 50.4232 28.8319 50.5601 28.899C50.697 28.966 50.8475 29.0009 51 29.0009C51.1524 29.0009 51.3029 28.966 51.4398 28.899C51.5767 28.8319 51.6965 28.7344 51.79 28.614L58.79 19.614C58.802 19.599 58.807 19.58 58.818 19.564C58.8428 19.5261 58.8652 19.4867 58.885 19.446C58.9095 19.3984 58.9303 19.3489 58.947 19.298C58.9596 19.2567 58.9693 19.2146 58.976 19.172C58.9865 19.1153 58.9919 19.0577 58.992 19C58.992 18.977 59 18.956 58.998 18.933C58.9944 18.9118 58.9897 18.8908 58.984 18.87C58.9696 18.7697 58.9417 18.6718 58.901 18.579C58.892 18.56 58.89 18.54 58.88 18.522L51.88 5.522C51.7863 5.37326 51.6564 5.2507 51.5025 5.16575C51.3486 5.08081 51.1757 5.03625 51 5.03625C50.8242 5.03625 50.6513 5.08081 50.4974 5.16575C50.3435 5.2507 50.2136 5.37326 50.12 5.522L43.12 18.522C43.11 18.54 43.108 18.56 43.099 18.579C43.0582 18.6718 43.0303 18.7697 43.016 18.87C43.0102 18.8908 43.0056 18.9118 43.002 18.933C43.002 18.956 43.008 18.977 43.008 19C43.008 19.0577 43.0134 19.1153 43.024 19.172V19.172ZM51 26.371L47.169 21.446L50.606 22.919C50.7305 22.9724 50.8645 22.9999 51 22.9999C51.1354 22.9999 51.2695 22.9724 51.394 22.919L54.831 21.446L51 26.371ZM52 9.971L56 17.392L52 16.25V9.971ZM51 18.04L55.021 19.188L51 20.912L46.979 19.188L51 18.04ZM50 9.966V16.245L46 17.387L50 9.966Z" fill="url(#paint0_linear_72:6117)"/>
<path d="M2 21.0001H5V23.0001H3C2.73478 23.0001 2.48043 23.1054 2.29289 23.2929C2.10536 23.4805 2 23.7348 2 24.0001V28.0001C2 28.2653 2.10536 28.5196 2.29289 28.7072C2.48043 28.8947 2.73478 29.0001 3 29.0001H23C23.2652 29.0001 23.5196 28.8947 23.7071 28.7072C23.8946 28.5196 24 28.2653 24 28.0001V25.0001H26C26.2652 25.0001 26.5196 24.8947 26.7071 24.7072C26.8946 24.5196 27 24.2653 27 24.0001V20.0001C27 19.7348 26.8946 19.4805 26.7071 19.2929C26.5196 19.1054 26.2652 19.0001 26 19.0001H23V16.0001C23 15.7348 22.8946 15.4805 22.7071 15.2929C22.5196 15.1054 22.2652 15.0001 22 15.0001H21.857C21.9983 14.4923 22.0356 13.9612 21.9668 13.4386C21.8981 12.9161 21.7245 12.4127 21.4567 11.9588C21.1888 11.5049 20.8321 11.1096 20.4079 10.7968C19.9837 10.4839 19.5008 10.2599 18.988 10.1381C18.988 10.0921 19 10.0471 19 10.0001C18.9977 9.25062 18.7845 8.51697 18.3848 7.88299C17.9852 7.24901 17.4152 6.74031 16.74 6.41505C16.9697 5.80955 17.0489 5.15733 16.9709 4.51445C16.8928 3.87157 16.6599 3.25725 16.292 2.72428C15.9241 2.1913 15.4324 1.75562 14.8589 1.45466C14.2855 1.1537 13.6476 0.99646 13 0.99646C12.3524 0.99646 11.7145 1.1537 11.1411 1.45466C10.5676 1.75562 10.0759 2.1913 9.70801 2.72428C9.34015 3.25725 9.10719 3.87157 9.02915 4.51445C8.95111 5.15733 9.03033 5.80955 9.26 6.41505C8.58475 6.74021 8.01468 7.2489 7.615 7.88289C7.21533 8.51689 7.0022 9.25059 7 10.0001C7 10.0471 7.01 10.0921 7.012 10.1381C6.4992 10.2599 6.01625 10.4839 5.59207 10.7968C5.16789 11.1096 4.81119 11.5049 4.54333 11.9588C4.27546 12.4127 4.10195 12.9161 4.03316 13.4386C3.96437 13.9612 4.00173 14.4923 4.143 15.0001H2C1.73478 15.0001 1.48043 15.1054 1.29289 15.2929C1.10536 15.4805 1 15.7348 1 16.0001V20.0001C1 20.2653 1.10536 20.5196 1.29289 20.7072C1.48043 20.8947 1.73478 21.0001 2 21.0001ZM10 27.0001H4V25.0001H10V27.0001ZM13 21.0001V23.0001H7V21.0001H13ZM11 19.0001V17.0001H13V19.0001H11ZM14 27.0001H12V25.0001H14V27.0001ZM11.271 15.0001C11.0943 14.6961 11.0008 14.3509 11 13.9993C10.9992 13.6478 11.0911 13.3022 11.2664 12.9974C11.4418 12.6927 11.6943 12.4395 11.9987 12.2635C12.303 12.0875 12.6484 11.9948 13 11.9948C13.3516 11.9948 13.697 12.0875 14.0013 12.2635C14.3057 12.4395 14.5582 12.6927 14.7336 12.9974C14.9089 13.3022 15.0008 13.6478 15 13.9993C14.9992 14.3509 14.9057 14.6961 14.729 15.0001H11.271ZM15 21.0001H17V23.0001H15V21.0001ZM22 27.0001H16V25.0001H22V27.0001ZM22 21.0001H25V23.0001H19V21.0001H22ZM21 17.0001V19.0001H15V17.0001H21ZM18 12.0001C18.3508 12.0006 18.6953 12.0934 18.9989 12.2691C19.3025 12.4449 19.5546 12.6974 19.7298 13.0014C19.9049 13.3053 19.9971 13.65 19.997 14.0008C19.9968 14.3516 19.9044 14.6962 19.729 15.0001H16.857C17.0921 14.1695 17.0364 13.2836 16.699 12.4891C17.0599 12.1752 17.5217 12.0017 18 12.0001ZM17 10.0001C17 10.0441 16.992 10.0871 16.989 10.1311C16.4402 10.2757 15.9287 10.5362 15.489 10.8951C14.7864 10.3203 13.9077 10.0044 13 10.0001C13 9.46962 13.2107 8.96091 13.5858 8.58584C13.9609 8.21076 14.4696 8.00005 15 8.00005C15.5304 8.00005 16.0391 8.21076 16.4142 8.58584C16.7893 8.96091 17 9.46962 17 10.0001ZM13 3.00005C13.3538 3.00022 13.7013 3.09427 14.0069 3.27259C14.3126 3.45091 14.5654 3.70713 14.7397 4.01508C14.9139 4.32304 15.0034 4.67172 14.9989 5.02553C14.9943 5.37935 14.8961 5.72563 14.714 6.02905C14.1151 6.07119 13.5337 6.24938 13.014 6.55005C12.4862 6.24518 11.8952 6.06589 11.287 6.02605C11.1058 5.72277 11.0081 5.37689 11.0039 5.02361C10.9998 4.67032 11.0892 4.32224 11.2633 4.01478C11.4374 3.70731 11.6898 3.45144 11.9948 3.27321C12.2999 3.09497 12.6467 3.00072 13 3.00005ZM11 8.00005C11.1743 8.00261 11.3474 8.02816 11.515 8.07605C11.1818 8.66285 11.0045 9.32525 11 10.0001C11.0046 10.1773 11.0213 10.3541 11.05 10.5291C10.8605 10.636 10.6799 10.7581 10.51 10.8941C10.07 10.5359 9.5586 10.2757 9.01 10.1311C9.008 10.0871 9 10.0441 9 10.0001C9 9.46962 9.21071 8.96091 9.58579 8.58584C9.96086 8.21076 10.4696 8.00005 11 8.00005V8.00005ZM8 12.0001C8.47771 12.0022 8.93885 12.1753 9.3 12.4881C8.96297 13.283 8.90757 14.1693 9.143 15.0001H6.271C6.09559 14.6962 6.00318 14.3516 6.00305 14.0008C6.00292 13.65 6.09506 13.3053 6.27024 13.0014C6.44541 12.6974 6.69746 12.4449 7.00107 12.2691C7.30468 12.0934 7.64919 12.0006 8 12.0001V12.0001ZM3 17.0001H9V19.0001H3V17.0001Z" fill="url(#paint1_linear_72:6117)"/>
<path d="M62 31H40C39.7348 31 39.4804 31.1054 39.2929 31.2929C39.1054 31.4804 39 31.7348 39 32C39.0021 33.8559 39.7403 35.6351 41.0526 36.9474C42.3649 38.2597 44.1441 38.9979 46 39H48V41H36.488L35.975 38.775C35.9241 38.5546 35.8 38.3579 35.6229 38.2172C35.4458 38.0764 35.2262 37.9999 35 38H29C28.7738 37.9999 28.5542 38.0764 28.3771 38.2172C28.2 38.3579 28.0759 38.5546 28.025 38.775L27.512 41H16V39H18C19.8559 38.9979 21.6351 38.2597 22.9474 36.9474C24.2597 35.6351 24.9979 33.8559 25 32C25 31.7348 24.8946 31.4804 24.7071 31.2929C24.5196 31.1054 24.2652 31 24 31H2C1.73478 31 1.48043 31.1054 1.29289 31.2929C1.10536 31.4804 1 31.7348 1 32C1.00212 33.8559 1.7403 35.6351 3.05259 36.9474C4.36489 38.2597 6.14413 38.9979 8 39H10V41H7C6.82952 40.9999 6.66186 41.0434 6.51293 41.1264C6.364 41.2093 6.23874 41.329 6.14907 41.474C6.05939 41.619 6.00827 41.7845 6.00056 41.9548C5.99284 42.1251 6.0288 42.2945 6.105 42.447C6.78496 43.8184 7.83555 44.9719 9.13766 45.7766C10.4398 46.5813 11.9413 47.0052 13.472 47H26.127L25.2 51H24C23.7348 51 23.4804 51.1054 23.2929 51.2929C23.1054 51.4804 23 51.7348 23 52V57H22C20.6744 57.0016 19.4036 57.5289 18.4662 58.4662C17.5289 59.4036 17.0016 60.6744 17 62C17 62.2652 17.1054 62.5196 17.2929 62.7071C17.4804 62.8946 17.7348 63 18 63H46C46.2652 63 46.5196 62.8946 46.7071 62.7071C46.8946 62.5196 47 62.2652 47 62C46.9984 60.6744 46.4711 59.4036 45.5338 58.4662C44.5964 57.5289 43.3256 57.0016 42 57H41V52C41 51.7348 40.8946 51.4804 40.7071 51.2929C40.5196 51.1054 40.2652 51 40 51H38.8L37.877 47H50.528C52.0596 47.0061 53.5621 46.5827 54.8652 45.7779C56.1683 44.9731 57.2197 43.8192 57.9 42.447C57.9764 42.2941 58.0123 42.1242 58.0044 41.9535C57.9965 41.7828 57.9449 41.617 57.8546 41.4718C57.7644 41.3267 57.6384 41.2071 57.4888 41.1245C57.3392 41.0419 57.1709 40.9991 57 41H54V39H56C57.8559 38.9979 59.6351 38.2597 60.9474 36.9474C62.2597 35.6351 62.9979 33.8559 63 32C63 31.7348 62.8946 31.4804 62.7071 31.2929C62.5196 31.1054 62.2652 31 62 31ZM29.8 40H34.21L36.748 51H27.257L29.8 40ZM8 37C6.84775 36.9987 5.73117 36.6002 4.83857 35.8715C3.94596 35.1428 3.33192 34.1287 3.1 33H22.9C22.6681 34.1287 22.054 35.1428 21.1614 35.8715C20.2688 36.6002 19.1523 36.9987 18 37H8ZM14 39V41H12V39H14ZM13.472 45C12.6114 45.0028 11.7597 44.8264 10.971 44.4821C10.1823 44.1378 9.47396 43.633 8.891 43H27.05L26.589 45H13.472ZM42 59C42.6203 59.0008 43.2251 59.1934 43.7316 59.5514C44.2381 59.9095 44.6214 60.4155 44.829 61H19.171C19.3786 60.4155 19.7619 59.9095 20.2684 59.5514C20.7749 59.1934 21.3797 59.0008 22 59H42ZM39 53V57H25V53H39ZM55.109 43C54.526 43.633 53.8177 44.1378 53.029 44.4821C52.2403 44.8264 51.3886 45.0028 50.528 45H37.411L36.95 43H55.109ZM50 41V39H52V41H50ZM56 37H46C44.8477 36.9987 43.7312 36.6002 42.8386 35.8715C41.946 35.1428 41.3319 34.1287 41.1 33H60.9C60.6681 34.1287 60.054 35.1428 59.1614 35.8715C58.2688 36.6002 57.1523 36.9987 56 37V37Z" fill="url(#paint2_linear_72:6117)"/>
<defs>
<linearGradient id="paint0_linear_72:6117" x1="51" y1="-1.02968e-06" x2="51" y2="64" gradientUnits="userSpaceOnUse">
<stop stop-color="#4800BF"/>
<stop offset="1" stop-color="#E5A100"/>
</linearGradient>
<linearGradient id="paint1_linear_72:6117" x1="14645" y1="-15379.4" x2="16309" y2="-15379.4" gradientUnits="userSpaceOnUse">
<stop stop-color="#4800BF"/>
<stop offset="1" stop-color="#E5A100"/>
</linearGradient>
<linearGradient id="paint2_linear_72:6117" x1="34921.3" y1="-16968.4" x2="38889.3" y2="-16968.4" gradientUnits="userSpaceOnUse">
<stop stop-color="#4800BF"/>
<stop offset="1" stop-color="#E5A100"/>
</linearGradient>
</defs>
</svg>
